# xmcd
# 
# Track frame offsets:
#     150
#     114526
#     161344
#     185662
#     214093
#     255186
# 
# Disc length: 4199
# 
# Revision: 1
# Processed by: cddbd v1.5.2PL0 Copyright (c) Steve Scherf et al.
# Submitted via: fre:ac v1.0.31
# 
DISCID=48106506
DTITLE=John Coltrane Quartet - Live at Penn State '63
DYEAR=1963
DGENRE=Jazz
TTITLE0=Bye Bye Blackbird
TTITLE1=The Inch Worm
TTITLE2=Every Time We Say Goodbye
TTITLE3=Mr. P.C.
TTITLE4=I Want to Talk About You
TTITLE5=My Favourite Things
EXTD=YEAR: 1963
EXTT0=
EXTT1=
EXTT2=
EXTT3=
EXTT4=
EXTT5=
PLAYORDER=
